<mxfile host="app.diagrams.net" modified="2023-08-20T07:33:50.698Z" agent="Mozilla/5.0 (Windows NT 10.0; Win64; x64) AppleWebKit/537.36 (KHTML, like Gecko) Chrome/115.0.0.0 Safari/537.36 Edg/115.0.1901.203" etag="1lYVmp-jsgSp2oRn2L4i" version="21.6.8" type="device">
  <diagram name="Page-1" id="21MIZ4kNVel5ca-O0jeG">
    <mxGraphModel dx="1400" dy="1821" grid="1" gridSize="10" guides="1" tooltips="1" connect="1" arrows="1" fold="1" page="1" pageScale="1" pageWidth="850" pageHeight="1100" math="0" shadow="0">
      <root>
        <mxCell id="0" />
        <mxCell id="1" parent="0" />
        <mxCell id="5_PH_a5DwGtGS8C0S6vh-59" value="" style="whiteSpace=wrap;html=1;aspect=fixed;" vertex="1" parent="1">
          <mxGeometry x="10" y="-400" width="780" height="780" as="geometry" />
        </mxCell>
        <object label="Auction" Title="" Owner="" id="2">
          <mxCell style="swimlane;fontStyle=1;align=center;verticalAlign=top;childLayout=stackLayout;horizontal=1;startSize=24.700000762939453;horizontalStack=0;resizeParent=1;resizeParentMax=0;resizeLast=0;collapsible=0;marginBottom=0;whiteSpace=wrap;" parent="1" vertex="1">
            <mxGeometry x="322" y="-100" width="160" height="260.00000076293946" as="geometry" />
          </mxCell>
        </object>
        <mxCell id="5_PH_a5DwGtGS8C0S6vh-19" value="&lt;ul&gt;&lt;li&gt;id: uint256&lt;/li&gt;&lt;li&gt;owner: address&lt;/li&gt;&lt;li&gt;title: string&lt;/li&gt;&lt;li&gt;description: string&lt;/li&gt;&lt;li&gt;deadline: uint256&lt;/li&gt;&lt;li&gt;image: string&lt;/li&gt;&lt;li&gt;currentBid: uint256&lt;/li&gt;&lt;li&gt;target: uint256&lt;/li&gt;&lt;li&gt;winner: address&lt;/li&gt;&lt;li&gt;participants: Participant[]&lt;/li&gt;&lt;li&gt;transactions: Transaction[]&lt;/li&gt;&lt;/ul&gt;" style="text;strokeColor=none;fillColor=none;align=left;verticalAlign=middle;spacingLeft=4;spacingRight=4;overflow=hidden;points=[[0,0.5],[1,0.5]];portConstraint=eastwest;rotatable=0;whiteSpace=wrap;html=1;fontSize=8;" vertex="1" parent="2">
          <mxGeometry y="24.700000762939453" width="160" height="115.3" as="geometry" />
        </mxCell>
        <mxCell id="3" style="line;strokeWidth=1;fillColor=none;align=left;verticalAlign=middle;spacingTop=-1;spacingLeft=3;spacingRight=3;rotatable=0;labelPosition=right;points=[];portConstraint=eastwest;strokeColor=inherit;whiteSpace=wrap;" parent="2" vertex="1">
          <mxGeometry y="140.00000076293946" width="160" height="10" as="geometry" />
        </mxCell>
        <mxCell id="5_PH_a5DwGtGS8C0S6vh-21" value="&lt;ul style=&quot;font-size: 8px;&quot;&gt;&lt;li&gt;&lt;font style=&quot;font-size: 8px;&quot;&gt;createAuction(owner: address, title: string , description: string, deadline: uint256, image: string, target: uint256)&lt;/font&gt;&lt;/li&gt;&lt;li&gt;&lt;font style=&quot;font-size: 8px;&quot;&gt;bidAuction(id: uint256)&lt;/font&gt;&lt;/li&gt;&lt;li&gt;&lt;font style=&quot;font-size: 8px;&quot;&gt;listAuctions(auction: Auction[])&lt;/font&gt;&lt;/li&gt;&lt;li&gt;&lt;font style=&quot;font-size: 8px;&quot;&gt;withdrawFunds(id: uint256)&lt;/font&gt;&lt;/li&gt;&lt;/ul&gt;" style="text;strokeColor=none;fillColor=none;align=left;verticalAlign=middle;spacingLeft=4;spacingRight=4;overflow=hidden;points=[[0,0.5],[1,0.5]];portConstraint=eastwest;rotatable=0;whiteSpace=wrap;html=1;" vertex="1" parent="2">
          <mxGeometry y="150.00000076293946" width="160" height="110" as="geometry" />
        </mxCell>
        <object label="Participant" Title="" Owner="" id="5_PH_a5DwGtGS8C0S6vh-24">
          <mxCell style="swimlane;fontStyle=1;align=center;verticalAlign=top;childLayout=stackLayout;horizontal=1;startSize=24.700000762939453;horizontalStack=0;resizeParent=1;resizeParentMax=0;resizeLast=0;collapsible=0;marginBottom=0;whiteSpace=wrap;" vertex="1" parent="1">
            <mxGeometry x="30" y="-100" width="200" height="160.00000076293946" as="geometry" />
          </mxCell>
        </object>
        <mxCell id="5_PH_a5DwGtGS8C0S6vh-25" value="&lt;ul&gt;&lt;li style=&quot;border-color: var(--border-color);&quot;&gt;&lt;font style=&quot;border-color: var(--border-color);&quot;&gt;bidder: address&lt;/font&gt;&lt;/li&gt;&lt;li style=&quot;border-color: var(--border-color);&quot;&gt;&lt;font style=&quot;border-color: var(--border-color);&quot;&gt;bidAmount: BigNumber&lt;/font&gt;&lt;/li&gt;&lt;li style=&quot;border-color: var(--border-color);&quot;&gt;&lt;font style=&quot;border-color: var(--border-color);&quot;&gt;withdrawnStatus: boolean&lt;/font&gt;&lt;/li&gt;&lt;/ul&gt;" style="text;strokeColor=none;fillColor=none;align=left;verticalAlign=middle;spacingLeft=4;spacingRight=4;overflow=hidden;points=[[0,0.5],[1,0.5]];portConstraint=eastwest;rotatable=0;whiteSpace=wrap;html=1;fontSize=8;" vertex="1" parent="5_PH_a5DwGtGS8C0S6vh-24">
          <mxGeometry y="24.700000762939453" width="200" height="45.3" as="geometry" />
        </mxCell>
        <mxCell id="5_PH_a5DwGtGS8C0S6vh-26" style="line;strokeWidth=1;fillColor=none;align=left;verticalAlign=middle;spacingTop=-1;spacingLeft=3;spacingRight=3;rotatable=0;labelPosition=right;points=[];portConstraint=eastwest;strokeColor=inherit;whiteSpace=wrap;" vertex="1" parent="5_PH_a5DwGtGS8C0S6vh-24">
          <mxGeometry y="70.00000076293945" width="200" height="10" as="geometry" />
        </mxCell>
        <mxCell id="5_PH_a5DwGtGS8C0S6vh-27" value="&lt;ul style=&quot;font-size: 8px;&quot;&gt;&lt;li&gt;listParticipants(auctionId: uint256):&amp;nbsp;&lt;/li&gt;&lt;li&gt;setParticipant(bidder: address, bidAmount: BigNumber, withdrawnStatus: boolean)&lt;/li&gt;&lt;/ul&gt;" style="text;strokeColor=none;fillColor=none;align=left;verticalAlign=middle;spacingLeft=4;spacingRight=4;overflow=hidden;points=[[0,0.5],[1,0.5]];portConstraint=eastwest;rotatable=0;whiteSpace=wrap;html=1;" vertex="1" parent="5_PH_a5DwGtGS8C0S6vh-24">
          <mxGeometry y="80.00000076293945" width="200" height="80" as="geometry" />
        </mxCell>
        <object label="User" Title="" Owner="" id="5_PH_a5DwGtGS8C0S6vh-28">
          <mxCell style="swimlane;fontStyle=1;align=center;verticalAlign=top;childLayout=stackLayout;horizontal=1;startSize=24.700000762939453;horizontalStack=0;resizeParent=1;resizeParentMax=0;resizeLast=0;collapsible=0;marginBottom=0;whiteSpace=wrap;" vertex="1" parent="1">
            <mxGeometry x="322" y="-310" width="160" height="150.00000076293946" as="geometry" />
          </mxCell>
        </object>
        <mxCell id="5_PH_a5DwGtGS8C0S6vh-29" value="&lt;ul&gt;&lt;li&gt;walletAddress: address&lt;/li&gt;&lt;li&gt;balance: BigNumber&lt;/li&gt;&lt;/ul&gt;" style="text;strokeColor=none;fillColor=none;align=left;verticalAlign=middle;spacingLeft=4;spacingRight=4;overflow=hidden;points=[[0,0.5],[1,0.5]];portConstraint=eastwest;rotatable=0;whiteSpace=wrap;html=1;fontSize=8;" vertex="1" parent="5_PH_a5DwGtGS8C0S6vh-28">
          <mxGeometry y="24.700000762939453" width="160" height="45.3" as="geometry" />
        </mxCell>
        <mxCell id="5_PH_a5DwGtGS8C0S6vh-30" style="line;strokeWidth=1;fillColor=none;align=left;verticalAlign=middle;spacingTop=-1;spacingLeft=3;spacingRight=3;rotatable=0;labelPosition=right;points=[];portConstraint=eastwest;strokeColor=inherit;whiteSpace=wrap;" vertex="1" parent="5_PH_a5DwGtGS8C0S6vh-28">
          <mxGeometry y="70.00000076293945" width="160" height="10" as="geometry" />
        </mxCell>
        <mxCell id="5_PH_a5DwGtGS8C0S6vh-31" value="&lt;ul style=&quot;font-size: 8px;&quot;&gt;&lt;li&gt;getAddress(): address&lt;/li&gt;&lt;li&gt;setAddress(id: string)&lt;/li&gt;&lt;li&gt;getBalance(): BigNumber&lt;/li&gt;&lt;li&gt;setBalance(walletAddress: address)&lt;/li&gt;&lt;/ul&gt;" style="text;strokeColor=none;fillColor=none;align=left;verticalAlign=middle;spacingLeft=4;spacingRight=4;overflow=hidden;points=[[0,0.5],[1,0.5]];portConstraint=eastwest;rotatable=0;whiteSpace=wrap;html=1;" vertex="1" parent="5_PH_a5DwGtGS8C0S6vh-28">
          <mxGeometry y="80.00000076293945" width="160" height="70" as="geometry" />
        </mxCell>
        <object label="IPFS" Title="" Owner="" id="5_PH_a5DwGtGS8C0S6vh-32">
          <mxCell style="swimlane;fontStyle=1;align=center;verticalAlign=top;childLayout=stackLayout;horizontal=1;startSize=24.700000762939453;horizontalStack=0;resizeParent=1;resizeParentMax=0;resizeLast=0;collapsible=0;marginBottom=0;whiteSpace=wrap;" vertex="1" parent="1">
            <mxGeometry x="330" y="200" width="160" height="120.00000076293945" as="geometry" />
          </mxCell>
        </object>
        <mxCell id="5_PH_a5DwGtGS8C0S6vh-33" value="&lt;ul&gt;&lt;li&gt;urlAddress: string&lt;/li&gt;&lt;/ul&gt;" style="text;strokeColor=none;fillColor=none;align=left;verticalAlign=middle;spacingLeft=4;spacingRight=4;overflow=hidden;points=[[0,0.5],[1,0.5]];portConstraint=eastwest;rotatable=0;whiteSpace=wrap;html=1;fontSize=8;" vertex="1" parent="5_PH_a5DwGtGS8C0S6vh-32">
          <mxGeometry y="24.700000762939453" width="160" height="45.3" as="geometry" />
        </mxCell>
        <mxCell id="5_PH_a5DwGtGS8C0S6vh-34" style="line;strokeWidth=1;fillColor=none;align=left;verticalAlign=middle;spacingTop=-1;spacingLeft=3;spacingRight=3;rotatable=0;labelPosition=right;points=[];portConstraint=eastwest;strokeColor=inherit;whiteSpace=wrap;" vertex="1" parent="5_PH_a5DwGtGS8C0S6vh-32">
          <mxGeometry y="70.00000076293945" width="160" height="10" as="geometry" />
        </mxCell>
        <mxCell id="5_PH_a5DwGtGS8C0S6vh-35" value="&lt;ul style=&quot;font-size: 8px;&quot;&gt;&lt;li&gt;getIPFS(): string&lt;/li&gt;&lt;li&gt;setIPFS(string: urlAddress)&lt;/li&gt;&lt;/ul&gt;" style="text;strokeColor=none;fillColor=none;align=left;verticalAlign=middle;spacingLeft=4;spacingRight=4;overflow=hidden;points=[[0,0.5],[1,0.5]];portConstraint=eastwest;rotatable=0;whiteSpace=wrap;html=1;" vertex="1" parent="5_PH_a5DwGtGS8C0S6vh-32">
          <mxGeometry y="80.00000076293945" width="160" height="40" as="geometry" />
        </mxCell>
        <object label="Transaction" Title="" Owner="" id="5_PH_a5DwGtGS8C0S6vh-36">
          <mxCell style="swimlane;fontStyle=1;align=center;verticalAlign=top;childLayout=stackLayout;horizontal=1;startSize=24.700000762939453;horizontalStack=0;resizeParent=1;resizeParentMax=0;resizeLast=0;collapsible=0;marginBottom=0;whiteSpace=wrap;" vertex="1" parent="1">
            <mxGeometry x="560" y="-100" width="160" height="150.00000076293946" as="geometry" />
          </mxCell>
        </object>
        <mxCell id="5_PH_a5DwGtGS8C0S6vh-37" value="&lt;ul&gt;&lt;li&gt;transactionID: uint256&lt;/li&gt;&lt;li&gt;amount: BigNumber&lt;/li&gt;&lt;li&gt;from: address&lt;/li&gt;&lt;li&gt;to: address&lt;/li&gt;&lt;/ul&gt;" style="text;strokeColor=none;fillColor=none;align=left;verticalAlign=middle;spacingLeft=4;spacingRight=4;overflow=hidden;points=[[0,0.5],[1,0.5]];portConstraint=eastwest;rotatable=0;whiteSpace=wrap;html=1;fontSize=8;" vertex="1" parent="5_PH_a5DwGtGS8C0S6vh-36">
          <mxGeometry y="24.700000762939453" width="160" height="55.3" as="geometry" />
        </mxCell>
        <mxCell id="5_PH_a5DwGtGS8C0S6vh-38" style="line;strokeWidth=1;fillColor=none;align=left;verticalAlign=middle;spacingTop=-1;spacingLeft=3;spacingRight=3;rotatable=0;labelPosition=right;points=[];portConstraint=eastwest;strokeColor=inherit;whiteSpace=wrap;" vertex="1" parent="5_PH_a5DwGtGS8C0S6vh-36">
          <mxGeometry y="80.00000076293945" width="160" height="10" as="geometry" />
        </mxCell>
        <mxCell id="5_PH_a5DwGtGS8C0S6vh-39" value="&lt;ul style=&quot;font-size: 8px;&quot;&gt;&lt;li&gt;sendTransaction()&lt;/li&gt;&lt;li&gt;setTransaction(amount: BigNumber)&lt;/li&gt;&lt;li&gt;getTransaction(): Transaction&lt;/li&gt;&lt;/ul&gt;" style="text;strokeColor=none;fillColor=none;align=left;verticalAlign=middle;spacingLeft=4;spacingRight=4;overflow=hidden;points=[[0,0.5],[1,0.5]];portConstraint=eastwest;rotatable=0;whiteSpace=wrap;html=1;" vertex="1" parent="5_PH_a5DwGtGS8C0S6vh-36">
          <mxGeometry y="90.00000076293945" width="160" height="60" as="geometry" />
        </mxCell>
        <mxCell id="5_PH_a5DwGtGS8C0S6vh-42" value="" style="endArrow=none;html=1;rounded=0;entryX=0.153;entryY=-0.001;entryDx=0;entryDy=0;entryPerimeter=0;exitX=0.773;exitY=0.006;exitDx=0;exitDy=0;exitPerimeter=0;edgeStyle=orthogonalEdgeStyle;" edge="1" parent="1" source="5_PH_a5DwGtGS8C0S6vh-24" target="2">
          <mxGeometry width="50" height="50" relative="1" as="geometry">
            <mxPoint x="330" y="30" as="sourcePoint" />
            <mxPoint x="380" y="-20" as="targetPoint" />
          </mxGeometry>
        </mxCell>
        <mxCell id="5_PH_a5DwGtGS8C0S6vh-56" value="participate" style="edgeLabel;html=1;align=center;verticalAlign=middle;resizable=0;points=[];" vertex="1" connectable="0" parent="5_PH_a5DwGtGS8C0S6vh-42">
          <mxGeometry x="-0.1374" y="-1" relative="1" as="geometry">
            <mxPoint x="17" y="-1" as="offset" />
          </mxGeometry>
        </mxCell>
        <mxCell id="5_PH_a5DwGtGS8C0S6vh-44" value="0..*" style="text;html=1;align=center;verticalAlign=middle;resizable=0;points=[];autosize=1;strokeColor=none;fillColor=none;fontSize=8;" vertex="1" parent="1">
          <mxGeometry x="180" y="-130" width="40" height="20" as="geometry" />
        </mxCell>
        <mxCell id="5_PH_a5DwGtGS8C0S6vh-45" value="1" style="text;html=1;align=center;verticalAlign=middle;resizable=0;points=[];autosize=1;strokeColor=none;fillColor=none;fontSize=8;" vertex="1" parent="1">
          <mxGeometry x="340" y="-120" width="30" height="20" as="geometry" />
        </mxCell>
        <mxCell id="5_PH_a5DwGtGS8C0S6vh-46" value="" style="endArrow=none;html=1;rounded=0;edgeStyle=orthogonalEdgeStyle;entryX=0.998;entryY=0.057;entryDx=0;entryDy=0;entryPerimeter=0;" edge="1" parent="1" source="5_PH_a5DwGtGS8C0S6vh-32" target="2">
          <mxGeometry width="50" height="50" relative="1" as="geometry">
            <mxPoint x="310" y="110" as="sourcePoint" />
            <mxPoint x="360" y="60" as="targetPoint" />
          </mxGeometry>
        </mxCell>
        <mxCell id="5_PH_a5DwGtGS8C0S6vh-57" value="add" style="edgeLabel;html=1;align=center;verticalAlign=middle;resizable=0;points=[];" vertex="1" connectable="0" parent="5_PH_a5DwGtGS8C0S6vh-46">
          <mxGeometry x="-0.7067" y="2" relative="1" as="geometry">
            <mxPoint as="offset" />
          </mxGeometry>
        </mxCell>
        <mxCell id="5_PH_a5DwGtGS8C0S6vh-47" value="1" style="text;html=1;align=center;verticalAlign=middle;resizable=0;points=[];autosize=1;strokeColor=none;fillColor=none;fontSize=8;" vertex="1" parent="1">
          <mxGeometry x="482" y="-80" width="30" height="20" as="geometry" />
        </mxCell>
        <mxCell id="5_PH_a5DwGtGS8C0S6vh-48" value="1" style="text;html=1;align=center;verticalAlign=middle;resizable=0;points=[];autosize=1;strokeColor=none;fillColor=none;fontSize=8;" vertex="1" parent="1">
          <mxGeometry x="390" y="180" width="30" height="20" as="geometry" />
        </mxCell>
        <mxCell id="5_PH_a5DwGtGS8C0S6vh-50" value="" style="endArrow=none;html=1;rounded=0;entryX=-0.001;entryY=0.071;entryDx=0;entryDy=0;entryPerimeter=0;" edge="1" parent="1" target="5_PH_a5DwGtGS8C0S6vh-36">
          <mxGeometry width="50" height="50" relative="1" as="geometry">
            <mxPoint x="482" y="-90" as="sourcePoint" />
            <mxPoint x="532" y="-140" as="targetPoint" />
          </mxGeometry>
        </mxCell>
        <mxCell id="5_PH_a5DwGtGS8C0S6vh-58" value="add" style="edgeLabel;html=1;align=center;verticalAlign=middle;resizable=0;points=[];" vertex="1" connectable="0" parent="5_PH_a5DwGtGS8C0S6vh-50">
          <mxGeometry x="-0.1222" y="-1" relative="1" as="geometry">
            <mxPoint x="4" y="-1" as="offset" />
          </mxGeometry>
        </mxCell>
        <mxCell id="5_PH_a5DwGtGS8C0S6vh-52" value="1" style="text;html=1;align=center;verticalAlign=middle;resizable=0;points=[];autosize=1;strokeColor=none;fillColor=none;fontSize=8;" vertex="1" parent="1">
          <mxGeometry x="482" y="-110" width="30" height="20" as="geometry" />
        </mxCell>
        <mxCell id="5_PH_a5DwGtGS8C0S6vh-53" value="0..*" style="text;html=1;align=center;verticalAlign=middle;resizable=0;points=[];autosize=1;strokeColor=none;fillColor=none;fontSize=8;" vertex="1" parent="1">
          <mxGeometry x="530" y="-110" width="40" height="20" as="geometry" />
        </mxCell>
        <mxCell id="5_PH_a5DwGtGS8C0S6vh-62" value="Auction System&#39;s Class Diagram" style="text;html=1;strokeColor=none;fillColor=none;align=center;verticalAlign=middle;whiteSpace=wrap;rounded=0;" vertex="1" parent="1">
          <mxGeometry x="308" y="-400" width="188" height="30" as="geometry" />
        </mxCell>
      </root>
    </mxGraphModel>
  </diagram>
</mxfile>
